# File created by Blade
# Date/Time:  Thu Jan 22 19:09:08 2015
#---------------------------------------------------------
:version 1.10
:name HOM
:units
  mass 1.0
  length 1.000000
  angle deg
:documentation
     Acclaim Skeleton File
:root
   axis xyz
   order TX TY TZ RX RY RZ
   position 0.000000 0.000000 0.000000
   orientation 0 0 0
:bonedata
   begin
      id 1
      name RightUpLeg_dum
      direction -1.000000 0.000000 0.000000
      length 4.478084
      axis 0.0 0.0 0.0 xyz
   end
   begin
      id 2
      name LeftUpLeg_dum
      direction 1.000000 0.000000 0.000000
      length 4.478084
      axis 0.0 0.0 0.0 xyz
   end
   begin
      id 3
      name Spine_dum
      direction 0.000000 1.000000 0.000000
      length 6.068208
      axis 0.0 0.0 0.0 xyz
   end
   begin
      id 4
      name RightUpLeg
      direction 0.000000 -1.000000 0.000000
      length 16.405774
      axis 0.0 0.0 0.0 xyz
      dof rx ry rz
   end
   begin
      id 5
      name RightLeg
      direction 0.000000 -1.000000 0.000000
      length 14.644143
      axis 0.0 0.0 0.0 xyz
      dof rx ry rz
   end
   begin
      id 6
      name RightFoot
      direction 0.000000 -0.258819 0.965926
      length 5.806150
      axis 15.0 0.0 0.0 xyz
      dof rx ry rz
   end
   begin
      id 7
      name RightToeBase
      direction 0.000000 0.000000 1.000000
      length 2.952750
      axis 0.0 0.0 0.0 xyz
      dof rx ry rz
   end
   begin
      id 8
      name LeftUpLeg
      direction 0.000000 -1.000000 0.000000
      length 16.405774
      axis 0.0 0.0 0.0 xyz
      dof rx ry rz
   end
   begin
      id 9
      name LeftLeg
      direction 0.000000 -1.000000 0.000000
      length 14.644143
      axis 0.0 0.0 0.0 xyz
      dof rx ry rz
   end
   begin
      id 10
      name LeftFoot
      direction 0.000000 -0.258819 0.965926
      length 5.806150
      axis 15.0 0.0 0.0 xyz
      dof rx ry rz
   end
   begin
      id 11
      name LeftToeBase
      direction 0.000000 0.000000 1.000000
      length 2.952750
      axis 0.0 0.0 0.0 xyz
      dof rx ry rz
   end
   begin
      id 12
      name Spine
      direction 0.000000 1.000000 0.000000
      length 0.000000
      axis 0.0 0.0 0.0 xyz
      dof rx ry rz
   end
   begin
      id 13
      name Spine_dum1
      direction 0.000000 1.000000 0.000000
      length 10.013923
      axis 0.0 0.0 0.0 xyz
   end
   begin
      id 14
      name Spine_dum2
      direction 0.000000 1.000000 0.000000
      length 10.013923
      axis 0.0 0.0 0.0 xyz
   end
   begin
      id 15
      name Spine_dum3
      direction 0.000000 1.000000 0.000000
      length 15.777476
      axis 0.0 0.0 0.0 xyz
   end
   begin
      id 16
      name RightShoulder
      direction -1.000000 0.000000 0.000000
      length 7.190220
      axis 0.0 0.0 90.0 xyz
      dof rx ry rz
   end
   begin
      id 17
      name RightArm
      direction -1.000000 0.000000 0.000000
      length 10.177469
      axis 0.0 0.0 90.0 xyz
      dof rx ry rz
   end
   begin
      id 18
      name RightForeArm
      direction -1.000000 0.000000 0.000000
      length 8.392114
      axis 0.0 0.0 90.0 xyz
      dof ry rz rx
   end
   begin
      id 19
      name RightHand
      direction -1.000000 0.000000 0.000000
      length 0.000000
      axis 0.0 0.0 90.0 xyz
      dof rx ry rz
   end
   begin
      id 20
      name RightHand_dum1
      direction -1.000000 0.000000 0.000000
      length 3.937000
      axis 0.0 0.0 90.0 xyz
   end
   begin
      id 21
      name RightHand_dum2
      direction 0.000000 0.000000 0.000000
      length 0.000000
      axis 0.0 0.0 90.0 xyz
   end
   begin
      id 22
      name RightHandThumb1
      direction 0.000000 0.000000 1.000000
      length 3.937000
      axis 0.0 0.0 90.0 xyz
      dof rx rz ry
   end
   begin
      id 23
      name LeftShoulder
      direction 1.000000 0.000000 0.000000
      length 7.190220
      axis 0.0 0.0 -90.0 xyz
      dof rx ry rz
   end
   begin
      id 24
      name LeftArm
      direction 1.000000 0.000000 0.000000
      length 10.177469
      axis 0.0 0.0 -90.0 xyz
      dof rx ry rz
   end
   begin
      id 25
      name LeftForeArm
      direction 1.000000 0.000000 0.000000
      length 8.392114
      axis 0.0 0.0 -90.0 xyz
      dof ry rz rx
   end
   begin
      id 26
      name LeftHand
      direction 1.000000 0.000000 0.000000
      length 0.000000
      axis 0.0 0.0 -90.0 xyz
      dof rx ry rz
   end
   begin
      id 27
      name LeftHand_dum1
      direction 1.000000 0.000000 0.000000
      length 3.937000
      axis 0.0 0.0 -90.0 xyz
   end
   begin
      id 28
      name LeftHand_dum2
      direction 0.000000 0.000000 0.000000
      length 0.000000
      axis 0.0 0.0 -90.0 xyz
   end
   begin
      id 29
      name LeftHandThumb1
      direction 0.000000 0.000000 1.000000
      length 3.937000
      axis 0.0 0.0 -90.0 xyz
      dof rx rz ry
   end
   begin
      id 30
      name Head
      direction 0.000000 1.000000 0.000000
      length 4.527550
      axis 0.0 0.0 0.0 xyz
      dof rx ry rz
   end
:hierarchy
   begin
      root RightUpLeg_dum LeftUpLeg_dum Spine_dum
      RightUpLeg_dum RightUpLeg
      LeftUpLeg_dum LeftUpLeg
      Spine_dum Spine
      RightUpLeg RightLeg
      RightLeg RightFoot
      RightFoot RightToeBase
      LeftUpLeg LeftLeg
      LeftLeg LeftFoot
      LeftFoot LeftToeBase
      Spine Spine_dum1 Spine_dum2 Spine_dum3
      Spine_dum1 RightShoulder
      Spine_dum2 LeftShoulder
      Spine_dum3 Head
      RightShoulder RightArm
      RightArm RightForeArm
      RightForeArm RightHand
      RightHand RightHand_dum1 RightHand_dum2
      RightHand_dum2 RightHandThumb1
      LeftShoulder LeftArm
      LeftArm LeftForeArm
      LeftForeArm LeftHand
      LeftHand LeftHand_dum1 LeftHand_dum2
      LeftHand_dum2 LeftHandThumb1
   end

# File created by Blade
# Date/Time:  Thu Jan 22 19:08:58 2015
# Frame Rate: 120.000 fps
#------------------------------------------------------
:FULLY-SPECIFIED
:DEGREES
458
root -1.188493 32.376312 -0.274689 47.882626 72.104960 37.417188
RightUpLeg 4.417429 -29.588319 -3.900213
RightLeg 3.363650 -0.000000 -0.000000
RightFoot -24.265889 -21.243920 8.285337
RightToeBase -0.305023 -0.000000 0.000000
LeftUpLeg -30.408339 -36.159713 4.402997
LeftLeg 11.816600 -0.000000 -0.000000
LeftFoot -1.641664 -22.596127 -5.173198
LeftToeBase 5.718368 -0.000000 -0.000000
Spine -7.674562 31.798005 -6.519071
RightShoulder -1.926249 9.029701 -38.297521
RightArm 57.951404 10.743080 47.155283
RightForeArm -17.538498 -0.000000 9.360587
RightHand 8.048804 0.000000 8.630536
RightHandThumb1 -24.326973 -0.000000 -32.862282
LeftShoulder -27.522663 15.786076 24.607756
LeftArm -5.635477 -26.925348 -43.440546
LeftForeArm 8.366489 -0.000000 1.030006
LeftHand -12.756687 -0.000000 1.340468
LeftHandThumb1 -26.253704 0.000000 33.147579
Head -6.317867 19.371680 -17.634642
459
root -1.171652 32.380221 -0.282667 47.466423 71.909587 37.002409
RightUpLeg 4.479517 -29.528202 -4.020230
RightLeg 3.276622 -0.000000 -0.000000
RightFoot -24.194211 -21.006134 8.312978
RightToeBase -0.329839 -0.000000 0.000000
LeftUpLeg -30.257212 -36.020824 4.292894
LeftLeg 11.718305 -0.000000 -0.000000
LeftFoot -1.679107 -22.517371 -5.167426
LeftToeBase 5.858043 -0.000000 -0.000000
Spine -7.734844 31.645326 -6.557451
RightShoulder -1.995976 8.993588 -38.240793
RightArm 57.913661 10.792394 47.172978
RightForeArm -17.691966 0.000000 9.297087
RightHand 8.058627 -0.000000 8.543652
RightHandThumb1 -24.326973 -0.000000 -32.862282
LeftShoulder -27.466354 15.718933 24.638500
LeftArm -5.429648 -26.815428 -43.371903
LeftForeArm 8.300480 -0.000000 1.008787
LeftHand -12.771271 0.000000 1.122343
LeftHandThumb1 -26.253704 0.000000 33.147579
Head -6.354033 18.301939 -17.483733
460
root -1.153609 32.385213 -0.291522 46.971768 71.671677 36.503508
RightUpLeg 4.517580 -29.442685 -4.137851
RightLeg 3.197677 -0.000000 -0.000000
RightFoot -24.110751 -20.802186 8.313639
RightToeBase -0.364749 -0.000000 0.000000
LeftUpLeg -30.084655 -35.788953 4.140778
LeftLeg 11.628637 -0.000000 -0.000000
LeftFoot -1.707190 -22.490529 -5.169908
LeftToeBase 5.920447 -0.000000 -0.000000
Spine -7.794139 31.509453 -6.593872
RightShoulder -2.045526 8.794786 -38.219875
RightArm 57.965563 10.939262 47.246398
RightForeArm -17.708466 -0.000000 9.337710
RightHand 7.950793 0.000000 8.476284
RightHandThumb1 -24.326973 -0.000000 -32.862282
LeftShoulder -27.553280 15.858728 24.535279
LeftArm -4.915424 -26.861920 -43.417003
LeftForeArm 8.308624 0.000000 0.923490
LeftHand -12.784056 0.000000 1.068455
LeftHandThumb1 -26.253704 0.000000 33.147579
Head -6.436405 17.277339 -17.379577
461
root -1.136113 32.391389 -0.299743 46.456504 71.424329 35.971256
RightUpLeg 4.529956 -29.363939 -4.231083
RightLeg 3.114219 -0.000000 -0.000000
RightFoot -24.016706 -20.634631 8.292427
RightToeBase -0.413669 -0.000000 0.000000
LeftUpLeg -29.919743 -35.461955 3.962061
LeftLeg 11.574749 -0.000000 -0.000000
LeftFoot -1.719142 -22.557393 -5.180444
LeftToeBase 6.092446 -0.000000 -0.000000
Spine -7.883307 31.416547 -6.651142
RightShoulder -2.111406 8.840160 -38.214381
RightArm 57.775443 10.860221 47.208690
RightForeArm -17.573447 -0.000000 9.396837
RightHand 7.974288 -0.000000 8.475755
RightHandThumb1 -24.326973 -0.000000 -32.862282
LeftShoulder -27.497832 15.754175 24.541071
LeftArm -4.737129 -26.743500 -43.264376
LeftForeArm 8.311217 -0.000000 0.905209
LeftHand -12.853909 0.000000 0.917040
LeftHandThumb1 -26.253704 0.000000 33.147579
Head -6.488508 16.289720 -17.245787
462
root -1.118974 32.398363 -0.307274 45.964501 71.169314 35.467984
RightUpLeg 4.545655 -29.325518 -4.328571
RightLeg 3.021613 -0.000000 -0.000000
RightFoot -23.905525 -20.466933 8.240101
RightToeBase -0.444743 -0.000000 0.000000
LeftUpLeg -29.763841 -35.226541 3.826124
LeftLeg 11.491615 -0.000000 -0.000000
LeftFoot -1.738455 -22.510712 -5.219109
LeftToeBase 6.186300 -0.000000 -0.000000
Spine -7.960902 31.270696 -6.713098
RightShoulder -2.144312 8.611464 -38.167485
RightArm 57.864313 10.987391 47.198025
RightForeArm -17.570612 -0.000000 9.371154
RightHand 8.108778 -0.000000 8.450385
RightHandThumb1 -24.326973 -0.000000 -32.862282
LeftShoulder -27.490738 15.717704 24.559123
LeftArm -4.523053 -26.793499 -43.167232
LeftForeArm 8.469929 -0.000000 0.880174
LeftHand -12.882611 -0.000000 0.857490
LeftHandThumb1 -26.253704 0.000000 33.147579
Head -6.586199 15.316323 -17.134243
463
root -1.102938 32.405687 -0.312564 45.422964 70.894443 34.908301
RightUpLeg 4.536294 -29.279047 -4.406396
RightLeg 2.943919 -0.000000 -0.000000
RightFoot -23.785533 -20.337757 8.123449
RightToeBase -0.424259 -0.000000 0.000000
LeftUpLeg -29.636208 -35.008094 3.732166
LeftLeg 11.409391 -0.000000 -0.000000
LeftFoot -1.758428 -22.468447 -5.222107
LeftToeBase 6.223798 -0.000000 -0.000000
Spine -8.041746 31.169993 -6.782931
RightShoulder -2.196624 8.322431 -38.140108
RightArm 57.962798 11.086311 47.124970
RightForeArm -17.458010 -0.000000 9.393809
RightHand 8.069146 -0.000000 8.489117
RightHandThumb1 -24.326973 -0.000000 -32.862282
LeftShoulder -27.436358 15.727186 24.583954
LeftArm -4.337197 -27.019033 -43.091609
LeftForeArm 8.664192 0.000000 0.921175
LeftHand -12.860702 -0.000000 0.764825
LeftHandThumb1 -26.253704 0.000000 33.147579
Head -6.692020 14.362989 -17.004727
464
root -1.088300 32.413064 -0.320010 44.781774 70.584777 34.246720
RightUpLeg 4.497783 -29.189895 -4.473354
RightLeg 2.898650 -0.000000 -0.000000
RightFoot -23.692025 -20.199050 8.073258
RightToeBase -0.403160 -0.000000 0.000000
LeftUpLeg -29.510817 -34.762530 3.626355
LeftLeg 11.389659 -0.000000 -0.000000
LeftFoot -1.824822 -22.324842 -5.319530
LeftToeBase 6.508080 -0.000000 -0.000000
Spine -8.110351 31.107244 -6.830005
RightShoulder -2.235079 8.233746 -38.155828
RightArm 57.896908 11.064641 47.040670
RightForeArm -17.364257 0.000000 9.413284
RightHand 8.121516 -0.000000 8.450957
RightHandThumb1 -24.326973 -0.000000 -32.862282
LeftShoulder -27.442104 15.814793 24.546740
LeftArm -4.013193 -27.043570 -43.085878
LeftForeArm 8.635683 0.000000 0.917899
LeftHand -12.863903 0.000000 0.850279
LeftHandThumb1 -26.253704 0.000000 33.147579
Head -6.812019 13.467697 -16.887087
465
root -1.073940 32.420214 -0.327361 44.193713 70.301451 33.680006
RightUpLeg 4.506478 -29.116273 -4.560698
RightLeg 2.862738 -0.000000 -0.000000
RightFoot -23.612587 -20.077907 8.049044
RightToeBase -0.400985 -0.000000 0.000000
LeftUpLeg -29.384731 -34.604713 3.535574
LeftLeg 11.375738 -0.000000 -0.000000
LeftFoot -1.866036 -22.190219 -5.317406
LeftToeBase 6.518707 -0.000000 -0.000000
Spine -8.078418 30.964425 -6.797990
RightShoulder -2.283559 8.221834 -38.234088
RightArm 57.881895 10.996272 47.017128
RightForeArm -17.414778 -0.000000 9.372811
RightHand 8.161754 -0.000000 8.489715
RightHandThumb1 -24.326973 -0.000000 -32.862282
LeftShoulder -27.454032 15.805840 24.494863
LeftArm -3.788310 -26.972135 -43.012766
LeftForeArm 8.645227 -0.000000 0.855255
LeftHand -12.712103 0.000000 0.957703
LeftHandThumb1 -26.253704 0.000000 33.147579
Head -6.978786 12.714457 -16.807931
466
root -1.055127 32.427776 -0.335192 43.533501 69.963684 33.041709
RightUpLeg 4.499538 -28.983132 -4.661671
RightLeg 2.855406 -0.000000 -0.000000
RightFoot -23.539524 -19.981702 8.001537
RightToeBase -0.365295 -0.000000 0.000000
LeftUpLeg -29.262817 -34.613262 3.526656
LeftLeg 11.320023 -0.000000 -0.000000
LeftFoot -1.942728 -21.828897 -5.453037
LeftToeBase 6.715904 -0.000000 -0.000000
Spine -8.082247 30.869842 -6.819597
RightShoulder -2.305654 8.194268 -38.263372
RightArm 57.848392 10.918751 46.922440
RightForeArm -17.394842 0.000000 9.330243
RightHand 8.090687 -0.000000 8.527365
RightHandThumb1 -24.326973 -0.000000 -32.862282
LeftShoulder -27.483958 15.847405 24.424652
LeftArm -3.523433 -26.927306 -42.908300
LeftForeArm 8.705133 0.000000 0.776201
LeftHand -12.557105 -0.000000 1.208420
LeftHandThumb1 -26.253704 0.000000 33.147579
Head -7.137008 11.826565 -16.723105
467
root -1.038153 32.434226 -0.340085 42.854969 69.629063 32.377641
RightUpLeg 4.485566 -28.820644 -4.735958
RightLeg 2.835993 -0.000000 -0.000000
RightFoot -23.466172 -19.895060 7.971963
RightToeBase -0.340997 -0.000000 0.000000
LeftUpLeg -29.170547 -34.582084 3.516501
LeftLeg 11.329616 -0.000000 -0.000000
LeftFoot -2.072639 -21.483926 -5.443406
LeftToeBase 6.808782 -0.000000 -0.000000
Spine -8.083412 30.772436 -6.836749
RightShoulder -2.348093 8.217195 -38.267238
RightArm 57.802323 10.744226 46.711852
RightForeArm -17.212406 -0.000000 9.256974
RightHand 8.168355 -0.000000 8.346967
RightHandThumb1 -24.326973 -0.000000 -32.862282
LeftShoulder -27.518805 16.053222 24.312417
LeftArm -3.172898 -27.187387 -42.863987
LeftForeArm 8.706710 -0.000000 0.735793
LeftHand -12.455381 -0.000000 1.002263
LeftHandThumb1 -26.253704 0.000000 33.147579
Head -7.363544 10.856735 -16.624784
